FILE "Árabe de cada día [Everyday Arabic]꞉ La manera más sencilla de iniciarse en la lengua árabe [The Easiest Way to Start in the Arabic Language] [B0722YND5L].m4b" MP3
TRACK 1 AUDIO
  TITLE "Capítulo 1"
  INDEX 01 0:00:00
TRACK 2 AUDIO
  TITLE "Capítulo 2"
  INDEX 01 1:43:71
TRACK 3 AUDIO
  TITLE "Capítulo 3"
  INDEX 01 2:35:69
TRACK 4 AUDIO
  TITLE "Capítulo 4"
  INDEX 01 3:54:45
TRACK 5 AUDIO
  TITLE "Capítulo 5"
  INDEX 01 5:04:13
TRACK 6 AUDIO
  TITLE "Capítulo 6"
  INDEX 01 6:45:38
TRACK 7 AUDIO
  TITLE "Capítulo 7"
  INDEX 01 7:28:36
TRACK 8 AUDIO
  TITLE "Capítulo 8"
  INDEX 01 7:46:38
TRACK 9 AUDIO
  TITLE "Capítulo 9"
  INDEX 01 8:47:71
TRACK 10 AUDIO
  TITLE "Capítulo 10"
  INDEX 01 11:02:36
TRACK 11 AUDIO
  TITLE "Capítulo 11"
  INDEX 01 12:23:06
TRACK 12 AUDIO
  TITLE "Capítulo 12"
  INDEX 01 15:46:39
TRACK 13 AUDIO
  TITLE "Capítulo 13"
  INDEX 01 16:42:09
TRACK 14 AUDIO
  TITLE "Capítulo 14"
  INDEX 01 18:13:55
TRACK 15 AUDIO
  TITLE "Capítulo 15"
  INDEX 01 19:10:56
TRACK 16 AUDIO
  TITLE "Capítulo 16"
  INDEX 01 21:01:71
TRACK 17 AUDIO
  TITLE "Capítulo 17"
  INDEX 01 22:46:17
TRACK 18 AUDIO
  TITLE "Capítulo 18"
  INDEX 01 24:08:53
TRACK 19 AUDIO
  TITLE "Capítulo 19"
  INDEX 01 25:41:02
TRACK 20 AUDIO
  TITLE "Capítulo 20"
  INDEX 01 28:33:41
TRACK 21 AUDIO
  TITLE "Capítulo 21"
  INDEX 01 30:49:24
TRACK 22 AUDIO
  TITLE "Capítulo 22"
  INDEX 01 32:16:43
TRACK 23 AUDIO
  TITLE "Capítulo 23"
  INDEX 01 33:36:65
TRACK 24 AUDIO
  TITLE "Capítulo 24"
  INDEX 01 34:42:12
TRACK 25 AUDIO
  TITLE "Capítulo 25"
  INDEX 01 36:28:26
TRACK 26 AUDIO
  TITLE "Capítulo 26"
  INDEX 01 40:14:19
TRACK 27 AUDIO
  TITLE "Capítulo 27"
  INDEX 01 41:05:04
TRACK 28 AUDIO
  TITLE "Capítulo 28"
  INDEX 01 42:10:49
TRACK 29 AUDIO
  TITLE "Capítulo 29"
  INDEX 01 42:38:20
TRACK 30 AUDIO
  TITLE "Capítulo 30"
  INDEX 01 43:32:62
TRACK 31 AUDIO
  TITLE "Capítulo 31"
  INDEX 01 44:15:57
TRACK 32 AUDIO
  TITLE "Capítulo 32"
  INDEX 01 47:15:36
TRACK 33 AUDIO
  TITLE "Capítulo 33"
  INDEX 01 48:23:18
TRACK 34 AUDIO
  TITLE "Capítulo 34"
  INDEX 01 49:29:64
TRACK 35 AUDIO
  TITLE "Capítulo 35"
  INDEX 01 50:52:72
TRACK 36 AUDIO
  TITLE "Capítulo 36"
  INDEX 01 51:57:12
TRACK 37 AUDIO
  TITLE "Capítulo 37"
  INDEX 01 53:24:04
